<?xml version="1.0" encoding="UTF-8"?>
<!DOCTYPE svg PUBLIC "-//W3C//DTD SVG 1.1//EN" "http://www.w3.org/Graphics/SVG/1.1/DTD/svg11.dtd">
<!-- Creator: CorelDRAW 2018 (64 Bit) -->
<svg xmlns="http://www.w3.org/2000/svg" xml:space="preserve" width="4.064mm" height="4.064mm" version="1.1" style="shape-rendering:geometricPrecision; text-rendering:geometricPrecision; image-rendering:optimizeQuality; fill-rule:evenodd; clip-rule:evenodd"
viewBox="0 0 406.4 406.4"
 xmlns:xlink="http://www.w3.org/1999/xlink">
 <defs>
  <style type="text/css">
   <![CDATA[
    .str0 {stroke:#947119;stroke-width:5;stroke-miterlimit:22.9256}
    .fil1 {fill:#ECD6A9}
    .fil0 {fill:#FEFEFE}
    .fil3 {fill:#85493A;fill-rule:nonzero}
    .fil2 {fill:#FAEFDA;fill-rule:nonzero}
   ]]>
  </style>
 </defs>
 <g id="Ebene_x0020_1">
  <metadata id="CorelCorpID_0Corel-Layer"/>
  <rect class="fil0 str0" x="27.57" y="34.08" width="340.65" height="340.65"/>
  <rect class="fil1" x="45.43" y="51.93" width="304.92" height="304.92"/>
  <path class="fil2" d="M222.44 139.82l18.38 69.57c0.85,3.1 1.67,6.38 2.38,9.79 0.75,3.37 1.5,7.3 2.32,11.7 0.99,-5.22 1.84,-9.48 2.53,-12.86 0.71,-3.38 1.39,-6.24 2.04,-8.63l17.19 -69.57 40.27 0 -41.36 146.3 -36.97 0 -18.07 -62.47c-0.68,-2.19 -1.78,-6.48 -3.31,-12.89 -0.65,-2.87 -1.19,-5.09 -1.6,-6.69 -0.31,1.4 -0.79,3.38 -1.4,5.9 -1.54,6.48 -2.7,11.02 -3.48,13.68l-17.8 62.47 -37.07 0 -41.3 -146.3 40.31 0 16.78 69.95c0.82,3.61 1.6,7.19 2.35,10.81 0.79,3.58 1.5,7.29 2.15,11.08 0.62,-2.8 1.26,-5.73 1.95,-8.8 0.71,-3.07 1.77,-7.43 3.17,-13.09l18.38 -69.95 32.16 0z"/>
  <path class="fil2" d="M112.86 305.93l0 -66.32 17.44 0 25.07 34.1c0.48,0.7 1.27,2.11 2.36,4.21 1.12,2.09 2.32,4.59 3.65,7.5 -0.35,-2.75 -0.62,-5.2 -0.79,-7.35 -0.17,-2.14 -0.24,-4.05 -0.24,-5.7l0 -32.76 17.34 0 0 66.32 -17.34 0 -25.06 -34.24c-0.53,-0.7 -1.33,-2.1 -2.43,-4.19 -1.11,-2.1 -2.3,-4.58 -3.6,-7.42 0.36,2.78 0.62,5.24 0.79,7.39 0.17,2.15 0.25,4.05 0.25,5.7l0 32.76 -17.44 0z"/>
  <path class="fil3" d="M112.86 305.93l0 -66.32 17.44 0 25.07 34.1c0.48,0.7 1.27,2.11 2.36,4.21 1.12,2.09 2.32,4.59 3.65,7.5 -0.35,-2.75 -0.62,-5.2 -0.79,-7.35 -0.17,-2.14 -0.24,-4.05 -0.24,-5.7l0 -32.76 17.34 0 0 66.32 -17.34 0 -25.06 -34.24c-0.53,-0.7 -1.33,-2.1 -2.43,-4.19 -1.11,-2.1 -2.3,-4.58 -3.6,-7.42 0.36,2.78 0.62,5.24 0.79,7.39 0.17,2.15 0.25,4.05 0.25,5.7l0 32.76 -17.44 0z"/>
 </g>
</svg>
